# File generated by ImageToStl.com - Free Image and 3D model conversion tools

mtllib leaf.mtl

# Plane_0
o obj1
v 62.8785789 -6.85505366 67.36223213
v 46.36820853 -4.27550515 50.86397002
v 23.39692414 -0.24047253 72.12433819
v 86.07115746 -6.04770853 77.84236172
v 99.20189977 -8.9465719 84.40528062
v 104.14520502 -12.87209592 88.29219551
v 91.46599174 -10.31840761 81.09768797
v -84.88628268 4.86265778 -78.69868954
v -49.69424307 2.14317014 -58.20223724
v -47.37391472 0.28073308 -72.89782767
v -8.314614 -4.19032536 -11.40840283
v 7.54115582 -0.00110328 -60.52257419
v 16.43585116 -6.93195459 0.19334668
v -66.20527506 1.39672134 -55.3554418
v -58.20220709 1.21995701 -39.63941952
v 79.08540964 -0.17507709 -3.67389915
v 57.42874742 -0.19179446 -40.79957005
v 37.70579994 -5.60710429 18.36943122
v 56.13783002 -4.39950789 45.55558038
v 80.63232303 -2.56970508 31.90489453
v 70.5303371 -7.09025108 64.45983764
v -50.8544445 0.06312546 10.24823486
v 8.70133042 -6.56466841 0.96683609
v -18.36949587 0.0604111 64.38988446
v 29.58453298 -5.74025987 23.39689229
v 62.3408258 -5.41597869 66.08966081
v 47.20000029 -1.51201014 50.73499704
v 69.20630336 -5.62022636 63.46328946
v 100.06328821 -10.32247526 92.51977373
v 104.1154623 -12.81102495 97.7873227
v 32.05499351 -1.81569502 25.79812437
v 13.31772506 -3.32029111 5.50127978
v 55.92676997 -1.57398299 45.91713573
v 88.82685304 -8.43246552 93.1359424
v 92.66602993 -12.44615882 97.89668524
v 39.34172988 -1.71301075 21.24879984
v -1.94967985 -1.71081852 -5.69701167
v 20.25745511 -3.49262912 4.80135438
v 62.40844727 -9.74235558 67.17629591
v 22.7078557 -2.68394521 71.85181423
v 45.53058743 -10.46475169 50.4783707
v 90.73070288 -16.93078155 80.79608359
v 103.45613956 -29.99097463 88.01967394
v 98.51283431 -25.76577187 84.132759
v 85.40865779 -19.01296752 77.57985306
v -85.57534814 2.41210366 -78.9712135
v -48.06298316 -1.78215373 -73.17035169
v -50.38331151 -4.38595547 -58.47476053
v -9.00368169 -11.85202193 -11.68092669
v 6.85208738 -2.45165698 -60.79509814
v 15.74678272 -14.5936519 -0.07917753
v -66.89434052 -0.60337552 -55.62796583
v -58.89127254 -1.00658804 -39.91194351
v 78.39634418 -2.62563069 -3.94642459
v 37.0167315 -13.2688016 18.09690662
v 56.73968196 -2.64234839 -41.07209401
v 55.51983118 -10.55423697 45.39060169
v 79.94325757 -10.00063277 31.63237139
v 70.06020546 -9.97755225 64.27390142
v -51.54350996 -2.38742852 9.9757109
v 8.01226273 -14.22636498 0.69431187
v 28.89546454 -13.40195607 23.12436769
v -19.05856431 -2.39014251 64.1173605
v 63.26475739 -11.953876 65.06217913
v 46.01677954 -15.57166872 45.85653201
v 69.52574849 -12.27226529 65.63759646
v 103.42639685 -29.92990812 97.51480113
v 99.37422276 -27.44135546 92.24725217
v 30.25141358 -18.46659849 23.15080914
v 13.35280687 -19.29485407 5.71177991
v 55.06877899 -14.49244731 47.97513721
v 91.97696447 -29.56503827 97.62416368
v 84.79390144 -22.29115306 86.06391316
v 38.21146488 -18.05533958 24.81772002
v 2.54618656 -18.23196763 -3.30532343
v 19.35972124 -19.46865507 6.83260877
vn 0.16406 0.00995 0.9864
vn 0.41722 0.87708 -0.23804
vn 0.13632 0.10334 0.98526
vn 0.24302 0.0841 0.96637
vn 0.06103 -0.10437 0.99266
vn -0.01309 -0.08078 0.99665
vn -0.01701 -0.16015 0.98695
vn -0.03973 -0.03146 0.99872
vn 0.06344 -0.07856 0.99489
vn -0.10362 -0.05634 0.99302
vn -0.04349 -0.1196 0.99187
vn -0.08488 -0.04584 0.99534
vn 0.00321 -0.13852 0.99035
vn 0.11544 -0.03176 0.99281
vn 0.10343 -0.00783 0.99461
vn 0.08292 0.06846 0.9942
vn 0.04428 0.10649 0.99333
vn -0.65169 -0.70467 0.2806
vn 0.63395 0.75068 0.18598
vn 0.55581 -0.03576 0.83054
vn -0.83231 -0.49896 0.24143
vn -0.73334 -0.67617 0.07078
vn 0.79776 0.56847 0.20106
vn 0.10188 -0.48353 0.86938
vn 0.82386 0.55881 0.09482
vn -0.59149 -0.76914 -0.24199
vn 0.60816 0.73558 0.29843
vn 0.14055 -0.15099 0.97849
vn 0.17112 -0.12162 0.97771
vn -0.12418 -0.17468 0.97676
vn 0.08995 -0.15866 0.98323
vn 0.09387 -0.15739 0.98307
vn -0.01573 0.00262 0.99987
vn 0.01581 0.08843 0.99596
vn 0.03439 -0.09608 0.99478
vn -0.04723 0.05313 0.99747
vn 0.00291 0.00759 0.99997
vn 0.05251 -0.05975 0.99683
vn -0.67937 -0.69786 0.22682
vn 0.39315 0.71773 0.57472
vn -0.14965 -0.19321 -0.96968
vn 0.58573 0.77966 0.22147
vn -0.08068 0.18623 -0.97919
vn 0.01666 0.17189 -0.98498
vn -0.01794 0.19354 -0.98093
vn 0.02836 0.17907 -0.98343
vn -0.21546 -0.04642 -0.97541
vn -0.20919 -0.08152 -0.97447
vn -0.24608 -0.06329 -0.96718
vn 0.17949 0.11562 -0.97694
vn 0.0779 0.20646 -0.97535
vn 0.10932 0.10811 -0.98811
vn 0.0278 -0.00912 -0.99957
vn -0.18468 -0.06579 -0.98059
vn -0.21493 -0.00462 -0.97662
vn -0.15356 -0.11756 -0.98112
vn -0.07877 -0.2046 -0.97567
vn -0.5259 -0.57556 -0.62622
vn 0.49992 0.80074 -0.33
vn -0.56502 0.04883 -0.82363
vn -0.75647 -0.53366 -0.3781
vn -0.71667 -0.68465 -0.13281
vn 0.71566 0.53333 -0.45099
vn -0.08015 0.45961 -0.88449
vn 0.75888 0.47668 -0.44371
vn -0.6065 -0.79434 0.03447
vn 0.57685 0.59788 -0.55658
vn -0.39477 0.14542 -0.9072
vn -0.16817 0.36587 -0.91535
vn -0.11724 0.36532 -0.92347
vn -0.06626 -0.17765 -0.98186
vn 0.09421 -0.10194 -0.99032
vn 0.02903 -0.10656 -0.99388
vn -0.04589 -0.09172 -0.99473
vn -0.00889 0.10655 -0.99427
vn 0.04504 -0.03125 -0.9985
vn 0.09948 -0.08018 -0.9918
vn -0.00558 0.437 -0.89944
vn -0.37187 0.16606 -0.91331
vn 0.33947 0.75235 -0.56456
vn 0.36766 0.92996 4E-05
vn -0.18218 -0.98155 -0.05802
vn 0.00903 -0.99983 -0.01628
vn 0.84912 0.49524 -0.18369
vn -0.84335 -0.50602 0.18087
vn 0.989 0.06147 -0.13454
vn -0.95331 -0.14712 0.26375
vn 0.95152 -0.28343 -0.11949
vn -0.86656 -0.44543 0.22511
vn 0.99918 -0.00339 -0.04027
vn 0.61711 0.78596 -0.03797
vn -0.76011 -0.63025 0.15818
vn 0.48971 0.87185 -0.0083
vn 0.16043 0.98457 0.06991
vn -0.71112 -0.70262 0.0251
vn 0.21998 0.9742 0.05048
vn 0.09949 -0.9893 -0.10672
usemtl mat0
f 1//1 2//1 3//1
f 4//2 5//2 6//2
f 6//2 7//2 4//2
f 8//3 9//3 10//3
f 10//4 9//4 11//4
f 12//5 11//5 13//5
f 11//6 12//6 10//6
f 14//7 9//7 8//7
f 15//8 9//8 14//8
f 15//9 11//9 9//9
f 16//10 17//10 13//10
f 13//10 18//10 16//10
f 17//11 12//11 13//11
f 19//12 20//12 16//12
f 16//12 18//12 19//12
f 20//13 19//13 21//13
f 22//14 23//14 11//14
f 11//15 15//15 22//15
f 23//16 22//16 24//16
f 24//16 25//16 23//16
f 25//17 24//17 3//17
f 3//17 2//17 25//17
f 26//18 27//18 2//18
f 2//18 1//18 26//18
f 28//19 4//19 7//19
f 7//19 21//19 28//19
f 5//20 29//20 30//20
f 30//20 6//20 5//20
f 27//21 31//21 25//21
f 25//21 2//21 27//21
f 31//22 32//22 23//22
f 23//22 25//22 31//22
f 33//23 28//23 21//23
f 21//23 19//23 33//23
f 29//24 34//24 35//24
f 35//24 30//24 29//24
f 36//25 33//25 19//25
f 19//25 18//25 36//25
f 32//26 37//26 11//26
f 11//26 23//26 32//26
f 38//27 36//27 18//27
f 18//27 13//27 38//27
f 5//28 4//28 29//28
f 29//29 4//29 34//29
f 34//30 4//30 28//30
f 28//31 33//31 26//31
f 26//32 33//32 27//32
f 27//33 36//33 31//33
f 31//34 38//34 32//34
f 32//35 38//35 37//35
f 38//36 31//36 36//36
f 36//37 27//37 33//37
f 26//38 34//38 28//38
f 34//39 26//39 1//39
f 1//39 35//39 34//39
f 37//40 38//40 13//40
f 13//40 11//40 37//40
f 39//41 40//41 41//41
f 42//42 43//42 44//42
f 44//42 45//42 42//42
f 46//43 47//43 48//43
f 47//44 49//44 48//44
f 50//45 51//45 49//45
f 49//46 47//46 50//46
f 52//47 46//47 48//47
f 53//48 52//48 48//48
f 53//49 48//49 49//49
f 54//50 55//50 51//50
f 51//50 56//50 54//50
f 56//51 51//51 50//51
f 57//52 55//52 54//52
f 54//52 58//52 57//52
f 58//53 59//53 57//53
f 60//54 49//54 61//54
f 49//55 60//55 53//55
f 61//56 62//56 63//56
f 63//56 60//56 61//56
f 62//57 41//57 40//57
f 40//57 63//57 62//57
f 64//58 39//58 41//58
f 41//58 65//58 64//58
f 66//59 59//59 42//59
f 42//59 45//59 66//59
f 44//60 43//60 67//60
f 67//60 68//60 44//60
f 65//61 41//61 62//61
f 62//61 69//61 65//61
f 69//62 62//62 61//62
f 61//62 70//62 69//62
f 71//63 57//63 59//63
f 59//63 66//63 71//63
f 68//64 67//64 72//64
f 72//64 73//64 68//64
f 74//65 55//65 57//65
f 57//65 71//65 74//65
f 70//66 61//66 49//66
f 49//66 75//66 70//66
f 76//67 51//67 55//67
f 55//67 74//67 76//67
f 44//68 68//68 45//68
f 68//69 73//69 45//69
f 73//70 66//70 45//70
f 66//71 64//71 71//71
f 64//72 65//72 71//72
f 65//73 69//73 74//73
f 69//74 70//74 76//74
f 70//75 75//75 76//75
f 76//76 74//76 69//76
f 74//77 71//77 65//77
f 64//78 66//78 73//78
f 73//79 72//79 39//79
f 39//79 64//79 73//79
f 75//80 49//80 51//80
f 51//80 76//80 75//80
f 50//81 12//81 17//81
f 17//81 56//81 50//81
f 40//82 3//82 24//82
f 24//82 63//82 40//82
f 67//83 30//83 35//83
f 35//83 72//83 67//83
f 56//84 17//84 16//84
f 16//84 54//84 56//84
f 63//85 24//85 22//85
f 22//85 60//85 63//85
f 54//86 16//86 20//86
f 20//86 58//86 54//86
f 60//87 22//87 15//87
f 15//87 53//87 60//87
f 58//88 20//88 21//88
f 21//88 59//88 58//88
f 53//89 15//89 14//89
f 14//89 52//89 53//89
f 43//90 6//90 30//90
f 30//90 67//90 43//90
f 59//91 21//91 7//91
f 7//91 42//91 59//91
f 52//92 14//92 8//92
f 8//92 46//92 52//92
f 42//93 7//93 6//93
f 6//93 43//93 42//93
f 46//94 8//94 10//94
f 10//94 47//94 46//94
f 72//95 35//95 1//95
f 1//95 39//95 72//95
f 47//96 10//96 12//96
f 12//96 50//96 47//96
f 39//97 1//97 3//97
f 3//97 40//97 39//97
# Vertices: 76, normals: 97, texture coordinates: 0, faces: 148

